<?xml version="1.0" standalone="no"?>
<!DOCTYPE svg PUBLIC "-//W3C//DTD SVG 20010904//EN"
 "http://www.w3.org/TR/2001/REC-SVG-20010904/DTD/svg10.dtd">
<svg version="1.0" xmlns="http://www.w3.org/2000/svg"
 width="276.000000pt" height="288.000000pt" viewBox="0 0 276.000000 288.000000"
 preserveAspectRatio="xMidYMid meet">

<g transform="translate(0.000000,288.000000) scale(0.100000,-0.100000)"
fill="#000000" stroke="none">
<path d="M1130 2665 c-8 -2 -49 -9 -90 -15 -282 -46 -559 -216 -707 -435 -58
-86 -89 -152 -119 -252 -36 -117 -38 -306 -6 -424 56 -209 206 -406 409 -538
l80 -53 -48 -191 c-50 -200 -56 -232 -39 -242 15 -9 37 5 255 166 l202 148
101 -8 c282 -22 544 43 765 189 486 321 565 924 172 1325 -152 156 -341 258
-572 310 -62 14 -365 29 -403 20z m-229 -716 c15 -15 19 -28 14 -47 -9 -40
-32 -52 -102 -52 l-63 0 0 -200 c0 -187 -1 -200 -19 -210 -26 -14 -74 -13 -89
2 -9 9 -12 68 -12 205 l0 193 -62 0 c-35 0 -68 4 -75 8 -22 14 -32 57 -19 83
15 31 47 36 249 38 147 1 158 0 178 -20z m208 4 c27 -22 183 -436 179 -472 -2
-15 -14 -31 -30 -40 -41 -23 -75 -3 -90 54 l-12 46 -99 -3 -99 -3 -17 -44
c-21 -57 -42 -71 -78 -51 -14 8 -30 22 -36 30 -12 19 154 468 180 487 24 18
77 16 102 -4z m324 -1 c14 -15 17 -49 19 -208 l3 -189 80 -3 c43 -2 85 -8 92
-14 18 -15 16 -73 -3 -92 -12 -13 -40 -16 -135 -16 -66 0 -129 5 -140 10 -18
10 -19 24 -19 252 0 211 2 244 17 260 21 23 65 23 86 0z m341 2 c12 -11 16
-36 16 -97 l0 -82 98 98 c53 53 102 97 107 97 15 0 65 -53 65 -70 0 -8 -34
-49 -75 -90 -41 -41 -75 -77 -75 -81 0 -3 36 -54 80 -112 44 -59 80 -113 80
-121 0 -20 -59 -68 -79 -64 -9 2 -50 49 -91 105 -43 59 -81 101 -90 100 -12
-2 -16 -22 -20 -92 -5 -84 -7 -90 -32 -104 -20 -12 -34 -13 -55 -5 l-28 9 -3
250 c-2 226 -1 251 15 263 23 17 68 15 87 -4z"/>
<path d="M1028 1742 c-16 -43 -28 -81 -28 -85 0 -4 26 -7 59 -7 l59 0 -27 85
c-14 47 -28 85 -31 85 -3 0 -17 -35 -32 -78z"/>
</g>
</svg>
