<?xml version="1.0" standalone="no"?>
<!DOCTYPE svg PUBLIC "-//W3C//DTD SVG 20010904//EN"
 "http://www.w3.org/TR/2001/REC-SVG-20010904/DTD/svg10.dtd">
<svg version="1.0" xmlns="http://www.w3.org/2000/svg"
 viewBox="0 0 663 598" preserveAspectRatio="xMidYMid meet" 
 style="max-width: 100%; height: auto;">

<g transform="translate(0.000000,598.000000) scale(0.100000,-0.100000)"
fill="#000000" stroke="none">
<path d="M3135 5964 c-16 -2 -77 -9 -135 -15 -800 -82 -1566 -516 -2055 -1164
-427 -567 -632 -1238 -594 -1952 44 -832 442 -1605 1100 -2140 435 -353 964
-574 1544 -645 155 -19 546 -16 702 5 614 83 1150 322 1596 712 611 534 974
1275 1016 2074 32 603 -114 1185 -426 1699 -379 626 -1007 1105 -1710 1308
-295 85 -491 114 -798 119 -115 2 -223 2 -240 -1z m467 -120 c270 -27 525 -87
768 -180 128 -49 382 -178 508 -258 748 -475 1233 -1269 1313 -2150 15 -159 6
-530 -16 -666 -118 -752 -500 -1397 -1099 -1858 -335 -257 -758 -450 -1166
-531 -214 -42 -346 -55 -580 -55 -225 0 -308 7 -530 45 -590 101 -1188 434
-1597 889 -419 465 -664 1010 -733 1630 -14 123 -14 457 0 585 64 590 293
1115 690 1577 593 690 1535 1066 2442 972z"/>
<path d="M2749 5642 c-26 -9 -57 -24 -69 -33 l-23 -15 41 -275 c23 -151 42
-284 42 -295 0 -12 -11 -29 -25 -38 -14 -9 -37 -24 -52 -33 l-28 -18 23 29
c50 65 15 189 -64 222 -29 12 -49 13 -120 3 -46 -7 -87 -9 -91 -5 -14 14 16
27 88 39 l74 13 9 42 c5 25 5 55 -1 75 -9 32 -10 32 -68 31 -77 0 -204 -50
-263 -101 -94 -83 -84 -214 22 -267 37 -18 56 -17 179 10 21 5 27 3 27 -9 0
-23 -29 -35 -114 -48 -86 -13 -94 -22 -83 -100 8 -61 22 -72 82 -66 66 7 201
59 256 99 l44 32 -48 -54 c-62 -69 -109 -162 -136 -270 -24 -94 -20 -90 -157
-190 -49 -35 -138 -113 -199 -172 -60 -60 -145 -131 -189 -160 -151 -98 -254
-215 -271 -309 -4 -21 -2 -62 5 -92 10 -52 9 -59 -24 -143 -43 -112 -52 -145
-71 -271 -17 -119 -20 -378 -5 -503 29 -234 144 -530 296 -762 35 -54 70 -110
78 -125 8 -16 77 -91 153 -168 215 -220 375 -312 755 -436 287 -93 341 -103
563 -101 196 2 232 9 440 77 168 56 502 203 573 253 15 11 38 23 50 27 13 4
48 28 77 53 29 26 76 66 104 90 51 43 190 210 239 287 82 129 188 410 235 620
20 91 22 128 22 425 0 359 -5 399 -74 573 -23 57 -31 94 -31 139 0 134 -50
228 -159 297 -27 18 -71 57 -97 88 -68 79 -294 267 -444 368 l-127 87 -51 102
c-47 93 -131 207 -205 275 l-26 23 22 30 c18 24 22 43 22 101 l0 71 -80 14
-79 15 49 18 c69 26 123 74 151 133 54 116 11 206 -121 250 -98 33 -266 33
-300 0 -18 -18 -20 -106 -4 -153 12 -34 26 -37 91 -22 45 10 88 3 95 -16 9
-23 -32 -56 -147 -121 l-105 -59 -9 -49 -9 -49 -118 0 -117 0 -12 80 c-30 212
-59 298 -108 316 -48 19 -128 6 -177 -29 l-45 -32 0 39 c0 57 -19 144 -33 153
-20 13 -79 8 -128 -10z m220 -284 c14 -36 43 -238 37 -254 -3 -8 -11 -14 -18
-14 -10 0 -20 42 -34 138 -12 75 -19 140 -17 145 8 14 24 7 32 -15z m562 -333
c111 -15 208 -40 224 -57 7 -7 2 -9 -15 -5 -153 35 -583 34 -765 -2 -177 -35
-177 -35 -120 -8 148 70 457 103 676 72z m120 -90 c52 -7 122 -24 154 -36 56
-21 135 -82 156 -121 9 -16 7 -17 -17 -8 -14 6 -78 20 -142 32 -103 20 -150
23 -397 23 -338 0 -482 -18 -747 -93 -38 -11 -68 -17 -68 -13 1 12 26 49 61
90 35 40 42 43 173 76 75 19 189 41 254 49 158 19 452 20 573 1z m24 -160
c168 -19 219 -29 291 -57 55 -22 61 -27 92 -88 18 -36 29 -66 24 -68 -5 -1
-33 7 -63 18 -78 31 -239 67 -351 80 -148 15 -527 13 -665 -5 -141 -19 -280
-48 -386 -82 -44 -13 -80 -23 -82 -21 -1 2 4 26 12 54 l15 51 101 32 c125 38
261 66 387 80 52 6 109 13 125 15 82 9 385 4 500 -9z m106 -173 c129 -24 279
-74 314 -106 25 -22 45 -96 27 -96 -5 0 -26 7 -46 15 -137 57 -415 89 -781 89
-296 0 -452 -15 -683 -66 -51 -11 -95 -18 -98 -15 -3 3 -2 21 1 40 6 32 12 37
63 56 114 41 331 87 481 101 48 5 203 7 346 5 210 -2 282 -6 376 -23z m-261
-142 c91 -6 206 -15 255 -21 165 -20 346 -74 365 -109 12 -23 13 -60 1 -60 -5
0 -100 13 -212 29 -361 52 -429 56 -814 54 -344 -1 -432 -7 -571 -38 -16 -4
-23 1 -27 17 -9 33 7 45 82 62 288 66 580 87 921 66z m885 -157 c88 -67 165
-137 143 -129 -10 3 -80 22 -155 42 -76 20 -141 39 -145 42 -3 4 -10 45 -14
91 l-7 85 54 -39 c30 -21 86 -63 124 -92z m-1985 44 l0 -52 -87 -27 c-49 -15
-97 -30 -108 -34 -23 -7 52 61 134 123 31 23 57 42 59 42 1 1 2 -23 2 -52z
m1046 -87 c262 -21 708 -82 849 -116 234 -58 484 -172 559 -255 49 -53 64
-124 41 -194 -9 -30 -30 -73 -47 -96 l-30 -42 -32 59 c-67 126 -177 244 -290
312 -183 111 -503 203 -821 237 -163 17 -602 20 -775 5 -159 -14 -379 -47
-480 -72 -234 -57 -393 -174 -482 -355 -33 -68 -40 -127 -25 -210 l7 -42 -36
21 c-59 35 -146 120 -165 163 -26 56 -23 92 11 151 44 78 180 185 318 250 97
46 317 113 474 144 118 24 188 32 307 36 85 2 157 6 159 9 9 9 325 5 458 -5z
m175 -130 c213 -22 422 -65 619 -130 133 -43 269 -119 348 -194 66 -62 145
-168 173 -232 l22 -48 -34 -28 c-18 -15 -36 -25 -39 -20 -4 4 -19 39 -35 77
-23 56 -43 85 -104 145 -89 88 -224 181 -321 220 -97 40 -245 76 -448 107
-169 27 -193 28 -532 28 -221 0 -393 -5 -455 -13 -331 -41 -505 -96 -611 -194
-55 -50 -130 -161 -151 -223 -15 -47 -15 -139 2 -179 7 -17 5 -18 -21 -12 -56
13 -84 73 -84 179 0 68 15 107 72 189 43 62 145 153 201 182 149 74 429 130
752 149 131 8 554 6 646 -3z m139 -139 c274 -38 483 -99 607 -180 97 -63 191
-144 228 -195 38 -53 79 -152 69 -167 -9 -15 -77 -47 -181 -84 -107 -38 -123
-41 -123 -22 0 27 -62 141 -92 169 -28 26 -32 36 -35 96 -8 157 -53 220 -178
256 -27 8 -115 26 -195 40 -408 70 -1014 68 -1298 -5 -116 -29 -116 -28 -133
-238 l-10 -125 -39 -33 c-21 -19 -51 -58 -66 -89 -25 -51 -29 -55 -53 -48 -14
4 -45 10 -68 14 -52 8 -71 24 -94 75 -29 63 -24 122 16 201 112 223 289 304
761 348 222 22 681 14 884 -13z m-240 -136 c197 -16 489 -63 552 -89 39 -17
57 -49 65 -119 9 -71 -29 -752 -42 -765 -2 -2 -64 20 -137 49 -73 28 -199 68
-280 88 -146 36 -146 36 -141 62 3 15 0 30 -6 33 -5 4 -46 -14 -89 -39 -117
-68 -242 -82 -277 -32 -25 36 -17 73 39 185 30 59 61 132 70 162 33 109 14
212 -50 272 -42 39 -134 78 -209 89 -175 24 -412 -67 -355 -136 17 -20 39 -19
92 5 68 30 186 52 238 45 69 -10 143 -42 174 -74 58 -60 44 -156 -45 -326 -28
-54 -54 -118 -58 -144 l-6 -46 -60 -8 c-113 -16 -270 -59 -364 -98 -51 -22
-95 -39 -96 -37 -2 2 -9 116 -15 253 -12 241 -4 547 15 597 8 21 45 32 180 53
219 35 514 43 805 20z m1450 -369 c11 -32 17 -62 14 -67 -3 -5 -35 -9 -72 -9
-67 0 -104 -12 -88 -27 4 -4 45 -10 91 -11 75 -4 84 -6 89 -25 15 -55 20 -53
-181 -61 -191 -6 -243 -13 -243 -31 0 -6 79 -10 218 -10 l217 0 0 -35 0 -35
-284 -7 c-294 -7 -335 -11 -328 -31 3 -9 76 -11 310 -8 l307 4 0 -42 0 -41
-107 -1 c-277 -2 -523 -15 -534 -26 -7 -7 -10 -15 -7 -19 4 -3 151 -5 328 -4
l321 1 -3 -42 -3 -42 -291 2 c-370 3 -490 -7 -444 -39 10 -7 73 -9 187 -4 94
3 257 3 362 -1 l191 -8 0 -32 c0 -31 -1 -32 -52 -39 -29 -3 -148 -6 -265 -6
-145 0 -214 -4 -219 -11 -14 -24 30 -29 274 -29 l252 0 0 -32 c0 -18 -4 -38
-8 -43 -4 -6 -92 -10 -226 -10 -154 0 -220 -3 -223 -11 -7 -20 22 -23 232 -30
199 -7 205 -8 205 -28 -1 -49 -1 -49 -289 -55 -194 -4 -273 -9 -282 -18 -7 -7
-10 -16 -6 -20 8 -8 444 -5 506 4 l44 6 -6 -38 c-3 -21 -11 -43 -17 -49 -6 -6
-118 -12 -289 -15 -154 -4 -283 -10 -287 -14 -23 -22 37 -27 289 -25 293 3
281 6 257 -56 l-10 -26 -137 0 c-138 0 -184 -9 -153 -30 8 -5 72 -10 143 -10
101 0 127 -3 127 -14 0 -22 -23 -34 -70 -38 -32 -2 -45 -7 -45 -18 0 -10 13
-16 42 -18 l43 -3 -15 -30 -15 -29 -78 39 c-43 22 -105 51 -138 64 -143 61
-369 166 -367 171 1 4 5 32 9 64 9 77 16 88 66 96 155 25 209 83 124 135 -18
12 -50 34 -71 51 -21 17 -69 47 -107 67 -74 40 -73 38 -62 130 6 49 9 54 48
73 22 12 52 35 66 52 28 36 59 120 60 161 0 17 6 30 18 33 35 11 159 56 222
81 91 36 219 123 277 187 26 30 51 51 55 47 4 -4 17 -33 28 -65z m-3245 34
c70 -77 323 -205 461 -234 43 -8 81 -19 85 -23 4 -4 13 -39 19 -78 13 -83 41
-135 104 -192 37 -34 46 -48 46 -76 0 -30 -7 -38 -69 -80 -98 -68 -181 -157
-181 -196 0 -23 6 -34 23 -40 40 -16 232 -71 245 -71 8 0 12 -22 12 -77 l-1
-78 -82 -34 c-45 -19 -180 -81 -301 -140 -208 -100 -219 -104 -232 -86 -21 29
-17 35 24 35 20 0 43 4 51 9 19 12 -9 26 -69 36 -49 8 -70 20 -70 40 0 10 30
14 119 17 66 1 122 6 126 10 21 21 -15 28 -139 28 l-132 0 -17 36 -18 36 320
-3 c176 -2 323 0 327 4 12 12 -9 26 -46 31 -19 3 -164 5 -322 5 l-287 1 -14
28 c-8 15 -18 38 -22 51 l-7 24 355 -7 c278 -6 356 -5 362 5 14 22 -26 41 -75
36 -25 -3 -181 -2 -348 1 -324 7 -321 7 -322 58 0 21 4 21 244 26 134 3 249 9
256 13 9 5 9 10 0 19 -8 8 -84 10 -266 7 -161 -2 -254 1 -254 7 0 5 -3 24 -6
42 l-7 32 284 -4 c156 -1 290 1 297 5 10 7 10 12 1 23 -9 11 -64 14 -300 14
l-289 0 0 43 0 44 363 6 c199 4 372 9 385 13 13 4 21 12 19 18 -3 8 -113 11
-388 11 l-384 0 -3 40 -3 40 353 0 c307 0 353 2 353 15 0 13 -42 16 -295 21
-162 3 -321 7 -352 8 l-58 1 0 40 0 40 330 0 c275 0 330 2 330 14 0 8 -7 17
-16 20 -9 3 -143 6 -299 6 -155 0 -296 3 -312 6 -28 5 -29 8 -24 42 l6 37 250
0 c216 0 250 2 250 15 0 20 -74 28 -295 29 -96 1 -180 5 -186 9 -6 4 -9 21 -7
38 l5 32 82 4 c45 2 88 8 95 12 24 15 -10 26 -86 26 -40 0 -73 4 -73 10 0 18
42 120 49 120 4 0 16 -9 26 -20z m2527 -152 c18 -34 23 -59 23 -123 0 -64 -5
-89 -23 -122 -38 -73 -46 -57 -39 79 4 66 7 141 7 165 0 23 2 43 5 43 2 0 15
-19 27 -42z m-1832 -25 c0 -27 3 -92 7 -145 7 -106 -2 -124 -31 -63 -30 63
-20 255 14 255 5 0 10 -21 10 -47z m596 -419 c-56 -69 -105 -168 -119 -245 -9
-44 -16 -59 -32 -63 -26 -7 -75 -8 -75 -1 0 15 56 113 106 187 75 110 132 178
150 178 10 0 -2 -21 -30 -56z m-76 9 c-53 -64 -148 -211 -176 -274 -27 -59
-27 -59 -70 -59 -24 0 -44 2 -44 5 0 15 58 118 103 183 62 90 165 181 205 182
8 0 1 -15 -18 -37z m185 16 c4 -5 0 -18 -8 -27 -26 -29 -97 -180 -111 -235
-13 -50 -15 -52 -49 -55 l-36 -3 15 53 c24 81 73 172 122 228 45 51 56 58 67
39z m391 -17 c62 -45 140 -137 174 -204 32 -65 30 -75 -13 -59 -16 6 -27 20
-32 40 -10 45 -76 141 -136 199 -59 57 -55 69 7 24z m-740 -44 c-57 -66 -113
-154 -142 -227 -18 -45 -28 -57 -48 -59 -15 -2 -26 2 -26 8 0 51 190 315 232
323 13 2 25 5 27 6 2 0 -17 -23 -43 -51z m685 7 c56 -44 121 -129 134 -173 l7
-23 -41 21 c-49 24 -177 142 -196 181 -29 56 22 53 96 -6z m221 -43 c43 -45
95 -134 112 -189 6 -17 3 -23 -9 -23 -8 0 -18 8 -21 18 -21 64 -81 167 -131
222 -68 76 -25 51 49 -28z m-490 72 c3 -3 -9 -28 -28 -55 -35 -53 -64 -133
-64 -181 0 -23 -6 -29 -32 -36 -18 -5 -34 -5 -36 -1 -2 5 26 69 62 144 58 122
79 149 98 129z m536 -17 c43 -34 172 -242 172 -277 0 -14 -43 -13 -58 2 -7 7
-12 24 -12 38 0 42 -57 145 -113 207 -43 46 -47 55 -27 48 14 -4 31 -12 38
-18z m-434 -9 c14 -55 6 -87 -31 -129 -33 -37 -103 -89 -118 -89 -27 0 33 144
85 203 37 42 55 47 64 15z m-647 -59 c-24 -28 -65 -90 -91 -139 -33 -64 -51
-87 -61 -83 -24 9 -18 32 30 108 43 70 133 165 155 165 7 0 -8 -23 -33 -51z
m1292 -119 c30 -56 41 -110 22 -110 -5 0 -16 20 -24 44 -13 39 -56 116 -113
206 -9 14 6 1 34 -28 28 -30 64 -80 81 -112z m29 75 c48 -61 115 -179 105
-188 -3 -4 -16 -7 -29 -7 -19 0 -24 8 -33 50 -13 60 -31 98 -79 164 -46 63
-17 47 36 -19z m-1462 -22 c-19 -27 -41 -70 -48 -96 -12 -47 -27 -57 -56 -38
-10 6 -7 21 14 70 22 51 36 69 73 91 25 16 47 27 49 25 2 -2 -12 -25 -32 -52z
m1630 -115 c23 -45 23 -48 6 -48 -14 0 -30 22 -58 78 -21 42 -40 82 -42 87 -8
24 71 -75 94 -117z m30 74 c20 -16 74 -101 74 -115 0 -4 -11 -7 -25 -7 -17 0
-25 6 -25 18 0 9 -13 41 -29 70 -31 55 -30 63 5 34z m-726 -38 c33 -26 57 -50
55 -55 -16 -25 -229 -49 -250 -27 -7 7 113 127 127 128 5 0 35 -21 68 -46z
m-1079 -8 c-6 -14 -17 -26 -26 -26 -21 0 -19 10 7 37 26 28 32 25 19 -11z
m1940 -35 c23 -18 23 -20 5 -27 -13 -5 -23 -1 -32 11 -28 38 -11 47 27 16z
m-626 -77 c29 -7 33 -16 40 -106 8 -81 -18 -503 -40 -673 -20 -152 -92 -426
-116 -440 -6 -4 -8 2 -5 17 36 164 74 482 87 718 12 208 7 319 -17 464 -6 35
-5 39 10 33 10 -4 28 -10 41 -13z m-85 -87 c20 -133 8 -528 -24 -766 -29 -222
-54 -368 -68 -393 -14 -27 -42 -23 -34 5 62 225 90 1025 41 1188 -4 10 6 21
27 32 18 8 36 16 39 16 4 1 13 -36 19 -82z m-440 58 l30 -16 0 -242 c0 -133 5
-291 10 -352 18 -191 73 -493 115 -620 3 -11 -7 5 -24 36 -66 125 -146 395
-177 599 -28 185 -23 610 7 610 6 0 23 -7 39 -15z m-97 -37 c-13 -71 -9 -445
6 -543 30 -208 87 -411 166 -594 63 -148 6 -82 -83 95 -87 174 -154 392 -172
566 -11 107 -13 346 -3 437 6 66 18 79 71 80 21 1 22 -2 15 -41z m748 32 c24
-13 25 -79 4 -375 -32 -452 -69 -647 -135 -710 -17 -16 -30 -25 -30 -21 0 4
16 69 35 144 48 193 96 715 82 898 -6 79 0 87 44 64z m-876 -273 c0 -212 4
-279 18 -351 28 -135 101 -350 162 -470 l54 -107 -30 18 c-39 23 -67 70 -124
212 -108 269 -165 546 -165 799 0 143 6 157 65 161 20 1 20 -5 20 -262z m982
253 c14 0 15 -24 10 -212 -6 -233 -23 -362 -68 -538 -26 -100 -54 -169 -64
-158 -2 1 5 46 15 98 23 119 49 410 57 643 5 148 9 177 20 172 8 -3 22 -5 30
-5z m-601 -6 c21 -6 21 -10 27 -382 4 -207 13 -465 21 -572 9 -107 15 -213 16
-235 1 -141 -91 222 -125 493 -16 128 -21 302 -17 545 l2 157 28 0 c15 0 36
-3 48 -6z m166 -39 c4 -22 10 -134 14 -250 9 -304 -25 -780 -65 -887 -9 -24
-14 35 -36 432 -8 140 -15 364 -15 497 0 267 -4 253 65 250 27 -2 31 -6 37
-42z m539 23 c9 -16 10 -66 6 -176 -11 -248 -23 -324 -70 -429 -22 -51 -42
-91 -43 -90 -2 2 3 30 11 62 24 105 45 330 46 486 0 84 2 156 5 161 10 15 33
8 45 -14z m144 -33 c-3 -30 -15 -85 -25 -121 -23 -78 -81 -236 -86 -231 -2 2
0 37 6 78 5 41 10 129 10 196 l0 122 28 3 c82 9 75 14 67 -47z m-1543 -30 c3
-39 11 -124 17 -190 6 -66 18 -146 27 -178 27 -105 8 -85 -29 30 -70 215 -89
421 -38 411 12 -2 18 -20 23 -73z m100 -110 c7 -200 33 -349 93 -532 18 -57
31 -103 29 -103 -16 0 -63 105 -91 205 -56 201 -73 300 -80 463 l-6 154 24 -4
24 -3 7 -180z m91 -2 c8 -260 47 -461 137 -700 22 -59 38 -108 36 -111 -7 -6
-64 112 -102 210 -46 118 -101 347 -114 470 -11 113 -13 301 -3 311 3 4 14 7
23 7 15 0 18 -20 23 -187z m-308 -100 l6 -32 -95 2 c-53 1 -96 5 -96 8 0 3 37
22 83 42 88 38 89 38 102 -20z m1795 19 c79 -39 73 -52 -27 -55 -46 -1 -83 0
-83 2 0 2 5 21 12 42 13 46 23 47 98 11z m321 -143 c85 -39 155 -73 157 -74
16 -14 -171 -242 -248 -302 l-55 -43 -6 200 c-4 110 -10 221 -14 245 -3 26 -2
45 3 45 5 0 79 -32 163 -71z m-2393 -168 c-2 -127 -7 -233 -11 -238 -12 -11
-219 217 -272 299 l-17 28 142 70 c78 38 147 70 152 70 7 0 9 -81 6 -229z
m294 211 c3 -4 10 -24 13 -45 7 -38 7 -38 -21 -30 -16 4 -66 8 -111 7 l-83 0
0 37 c0 31 4 38 23 42 28 7 170 -3 179 -11z m1824 0 c6 -4 14 -24 18 -45 7
-37 6 -38 -16 -30 -13 4 -62 8 -110 8 -96 -1 -105 6 -72 53 13 19 24 22 92 22
42 0 82 -4 88 -8z m-1816 -117 c5 -3 10 -27 10 -51 l0 -46 -42 9 c-24 4 -73 8
-110 8 l-68 -1 0 43 c0 38 3 42 28 46 35 7 168 1 182 -8z m1818 9 c17 -5 22
-14 22 -38 l0 -32 -102 3 -103 2 -3 36 -3 35 83 0 c46 0 93 -3 106 -6z m10
-110 c18 -5 22 -13 22 -49 l0 -43 -37 10 c-21 6 -68 11 -105 12 l-68 1 0 32
c0 17 6 34 13 36 17 8 148 8 175 1z m-1825 -36 c12 -6 17 -21 17 -49 0 -35 -3
-40 -17 -34 -42 16 -134 25 -173 16 l-40 -9 0 43 c0 37 3 44 23 48 32 6 169
-4 190 -15z m1550 -115 c4 -71 3 -171 -1 -223 l-7 -95 -100 -42 c-105 -45
-293 -108 -301 -101 -2 3 13 18 34 35 67 54 228 294 313 466 24 48 46 87 50
87 4 0 9 -57 12 -127z m-1408 17 c57 -113 205 -319 304 -422 30 -32 49 -58 44
-58 -21 0 -382 121 -388 130 -6 9 5 400 11 400 2 0 15 -23 29 -50z m1668 9
c36 -10 37 -11 37 -56 l0 -45 -32 6 c-18 4 -63 10 -100 13 l-68 6 0 43 0 44
63 0 c34 0 79 -5 100 -11z m-1809 -32 c15 -11 17 -21 11 -59 l-7 -45 -51 19
c-28 11 -78 21 -111 22 -64 3 -62 2 -58 56 2 19 9 20 100 20 65 0 104 -4 116
-13z m1809 -104 c22 -4 27 -11 27 -33 0 -35 -20 -43 -73 -29 -23 6 -58 8 -79
5 -38 -6 -38 -6 -38 27 0 19 3 37 8 41 7 7 94 1 155 -11z m-1848 -15 c37 -12
40 -16 43 -52 3 -34 1 -38 -15 -31 -10 4 -61 13 -113 21 -52 7 -96 13 -97 13
-2 1 -3 17 -3 37 l0 37 73 -6 c39 -3 90 -11 112 -19z m1805 -83 c0 -8 -98 -55
-115 -55 -17 0 -18 4 -9 38 6 20 13 22 65 22 33 0 59 -2 59 -5z m-1797 -36
c26 -7 37 -15 37 -29 0 -11 -2 -20 -5 -20 -10 0 -105 50 -105 55 0 8 33 6 73
-6z"/>
<path d="M4535 4010 c3 -5 36 -29 73 -53 80 -52 172 -144 204 -204 25 -47 38
-55 38 -21 0 76 -116 209 -237 271 -35 18 -88 23 -78 7z"/>
<path d="M1995 3961 c-97 -55 -180 -180 -173 -259 5 -55 23 -48 41 15 23 82
73 160 137 212 83 67 81 81 -5 32z"/>
<path d="M2292 3742 c-59 -55 -93 -157 -78 -237 11 -55 30 -37 38 35 9 80 30
140 62 183 42 55 29 66 -22 19z"/>
<path d="M4300 3731 c0 -5 31 -27 70 -50 38 -23 101 -74 140 -113 39 -39 73
-68 76 -65 11 10 -43 92 -92 142 -26 25 -68 57 -95 70 -48 25 -99 33 -99 16z"/>
<path d="M2373 3676 c-43 -54 -68 -154 -38 -150 11 2 67 152 62 167 -2 6 -13
-2 -24 -17z"/>
<path d="M4330 3607 c0 -7 18 -31 41 -52 22 -22 57 -61 77 -87 21 -28 40 -44
45 -39 10 10 -21 76 -59 120 -32 38 -104 78 -104 58z"/>
<path d="M3620 3721 c-68 -18 -143 -53 -172 -79 -10 -8 -18 -28 -18 -45 0 -28
2 -29 38 -24 20 2 65 16 99 31 79 34 164 50 226 42 29 -3 83 -23 138 -52 63
-34 92 -45 100 -37 30 30 -79 143 -162 167 -68 21 -167 19 -249 -3z"/>
<path d="M2871 3504 c-85 -7 -164 -18 -177 -24 -31 -17 -38 -40 -19 -59 13
-13 35 -15 108 -14 208 6 337 32 337 70 0 32 -74 41 -249 27z"/>
<path d="M3538 3500 c-21 -13 -24 -53 -5 -68 7 -6 87 -12 198 -14 163 -3 188
-1 212 15 31 20 27 39 -11 58 -35 17 -369 25 -394 9z"/>
<path d="M4397 5373 c-8 -12 -33 -207 -43 -323 -6 -74 -12 -93 -45 -151 -22
-36 -39 -72 -39 -81 0 -27 190 -131 208 -113 3 2 22 32 42 67 34 56 52 72 205
177 92 64 173 124 178 133 15 23 -4 56 -48 86 -41 29 -149 64 -170 56 -8 -4
-41 -43 -72 -88 -31 -44 -60 -85 -65 -91 -9 -9 33 86 78 178 17 35 17 41 3 65
-29 51 -212 118 -232 85z"/>
<path d="M1885 5088 c-16 -6 -57 -30 -91 -54 -176 -124 -190 -279 -39 -430
111 -111 237 -92 390 58 101 99 107 136 32 171 -70 33 -82 32 -107 -10 -35
-58 -71 -93 -96 -93 -39 0 -35 16 15 59 97 81 122 182 64 252 -47 55 -101 70
-168 47z m-3 -195 c21 -24 29 -55 19 -71 -10 -17 -61 40 -61 69 0 24 22 25 42
2z"/>
<path d="M4876 4814 c-59 -31 -135 -106 -159 -156 -22 -47 -21 -123 3 -176 26
-57 114 -149 172 -178 94 -48 194 -26 287 61 87 82 112 172 72 260 -28 63
-124 160 -186 190 -69 32 -125 32 -189 -1z m202 -186 c3 -18 -66 -92 -127
-136 -41 -30 -71 -33 -71 -7 0 29 160 170 184 162 6 -2 12 -11 14 -19z"/>
<path d="M1453 4719 c-12 -4 -34 -27 -50 -50 -22 -33 -27 -53 -28 -99 0 -55
-1 -57 -22 -47 -32 14 -67 -12 -98 -73 -49 -96 -47 -98 144 -240 93 -69 176
-126 185 -128 22 -5 151 178 136 191 -3 2 -51 38 -107 80 -56 42 -104 81 -108
87 -9 14 19 52 64 85 22 17 43 36 46 43 8 20 -18 62 -67 108 -50 48 -65 54
-95 43z"/>
<path d="M5272 4304 c-237 -113 -278 -169 -214 -295 20 -40 37 -59 65 -73 37
-17 37 -19 21 -37 -17 -18 -17 -21 0 -57 28 -60 80 -142 89 -142 22 0 414 198
419 212 13 33 -84 188 -118 188 -7 0 -79 -31 -158 -69 -124 -59 -147 -67 -157
-55 -17 21 -10 27 158 113 143 74 148 77 145 105 -2 16 -10 43 -18 58 -23 44
-84 108 -103 107 -9 0 -67 -25 -129 -55z"/>
<path d="M1013 4272 c-16 -10 -145 -321 -150 -362 -3 -23 0 -40 9 -47 7 -7
128 -60 267 -118 196 -82 256 -103 267 -95 18 16 74 162 74 195 0 17 -7 28
-22 34 -13 5 -49 20 -81 34 l-57 26 32 65 c32 65 32 65 12 87 -33 36 -120 74
-141 60 -6 -3 -21 -34 -33 -69 -26 -70 -28 -73 -58 -65 -21 5 -20 7 19 85 39
78 40 81 22 100 -31 35 -141 82 -160 70z"/>
<path d="M984 2800 c-56 -23 -73 -112 -29 -155 33 -34 93 -34 132 -1 22 19 28
32 28 66 0 35 -6 47 -33 71 -33 29 -60 35 -98 19z"/>
<path d="M5609 2782 c-28 -25 -34 -37 -34 -72 0 -55 37 -90 96 -90 115 0 122
168 8 186 -31 5 -42 1 -70 -24z"/>
<path d="M5600 2411 c-20 -39 -12 -71 20 -82 25 -9 28 -14 19 -30 -28 -54 13
-104 97 -120 36 -7 53 -6 69 5 27 18 40 63 24 82 -9 11 -8 14 4 14 10 0 18 14
22 41 4 22 5 42 3 43 -4 4 -231 66 -240 66 -4 0 -12 -9 -18 -19z m165 -126
l30 -15 -35 6 c-19 4 -42 10 -50 15 -27 15 22 10 55 -6z"/>
<path d="M1028 2352 c-60 -14 -108 -30 -108 -36 0 -6 5 -28 11 -49 l10 -38 45
7 c54 8 62 -12 8 -22 -19 -4 -38 -13 -41 -20 -9 -23 17 -84 35 -84 40 2 216
47 219 57 2 6 -3 28 -11 48 -16 37 -17 37 -57 31 -31 -5 -40 -3 -37 6 3 7 16
14 31 16 34 4 49 24 42 55 -14 53 -29 56 -147 29z"/>
<path d="M5597 2145 c-9 -8 -23 -35 -32 -59 -22 -56 -11 -92 35 -123 69 -48
144 -15 170 75 16 53 8 72 -30 72 -26 0 -30 -3 -30 -29 0 -16 -6 -34 -14 -40
-11 -9 -12 -5 -3 28 9 32 8 44 -6 65 -20 30 -66 35 -90 11z m48 -85 c3 -5 2
-10 -4 -10 -5 0 -13 5 -16 10 -3 6 -2 10 4 10 5 0 13 -4 16 -10z"/>
<path d="M1132 2078 c-16 -16 -15 -33 3 -48 8 -7 15 -22 15 -34 0 -18 -3 -16
-15 9 -32 63 -79 81 -115 45 -25 -25 -26 -60 0 -92 10 -14 17 -28 14 -31 -7
-7 23 -77 33 -77 22 0 121 44 141 63 26 24 28 54 7 104 -27 65 -57 87 -83 61z
m-27 -108 c-3 -5 -13 -10 -21 -10 -8 0 -12 5 -9 10 3 6 13 10 21 10 8 0 12 -4
9 -10z"/>
<path d="M5422 1925 c-17 -38 -15 -63 8 -75 11 -6 20 -17 20 -26 0 -20 52 -44
57 -27 3 9 15 7 43 -7 66 -34 97 -25 129 38 17 33 -3 56 -41 48 -39 -8 -78 12
-75 37 2 25 -49 50 -61 30 -5 -8 -13 -9 -22 -3 -26 17 -46 11 -58 -15z"/>
<path d="M1163 1832 c-40 -20 -73 -42 -73 -50 0 -10 18 -45 37 -71 2 -3 26 6
54 19 53 25 68 20 69 -22 0 -25 17 -31 55 -18 42 14 48 48 12 77 -12 10 -21
25 -19 34 3 18 -34 69 -51 68 -7 0 -45 -17 -84 -37z"/>
<path d="M5403 1758 c-56 -64 -69 -120 -35 -151 27 -25 62 -21 95 11 27 25 29
25 18 4 -7 -13 -19 -26 -27 -29 -19 -7 -18 -37 4 -56 15 -14 19 -14 39 2 67
55 94 145 51 175 -32 22 -52 20 -90 -11 l-33 -27 24 27 c21 23 23 30 13 52
-14 31 -32 32 -59 3z"/>
<path d="M1288 1608 c-25 -40 -48 -78 -51 -84 -3 -6 6 -25 21 -42 l27 -32 95
18 c109 20 118 31 71 84 l-30 33 -33 -18 -33 -18 28 23 c15 13 27 31 27 39 0
17 -50 69 -66 69 -6 0 -31 -33 -56 -72z"/>
<path d="M5264 1554 l-19 -36 55 -49 c30 -27 50 -49 43 -49 -6 0 -33 18 -59
41 -25 22 -53 39 -62 37 -9 -2 -25 -18 -36 -37 l-19 -34 34 -29 c52 -44 92
-68 115 -68 18 0 64 37 64 52 0 3 16 22 35 42 19 21 35 40 34 44 -1 13 -137
122 -151 122 -8 0 -23 -16 -34 -36z"/>
<path d="M1475 1442 c-33 -7 -72 -39 -85 -72 -16 -38 -1 -79 47 -127 40 -40
59 -42 75 -7 11 24 10 28 -15 46 -15 11 -27 24 -27 30 0 5 14 -2 31 -16 39
-33 72 -33 98 1 26 33 20 56 -26 105 -36 36 -61 47 -98 40z m55 -81 c0 -5 -7
-12 -16 -15 -14 -5 -15 -4 -4 9 14 17 20 19 20 6z"/>
<path d="M5111 1386 c-12 -12 -21 -30 -21 -39 0 -10 -5 -14 -14 -11 -16 6 -56
-33 -56 -55 0 -20 107 -141 125 -141 7 0 25 15 39 32 l25 33 -34 35 c-42 43
-43 53 -9 78 l27 19 -18 31 c-25 41 -39 45 -64 18z"/>
<path d="M4865 1233 c-38 -30 -71 -61 -73 -68 -9 -37 55 -84 73 -55 11 17 19
11 59 -45 22 -30 45 -55 53 -55 7 0 27 13 45 28 l31 29 -46 60 c-45 59 -46 61
-27 74 20 14 20 14 2 49 -11 19 -26 36 -33 37 -8 1 -45 -23 -84 -54z"/>
<path d="M1627 1252 c-21 -23 -22 -61 -1 -90 8 -12 11 -22 6 -22 -5 0 -15 11
-22 25 -15 28 -41 32 -60 10 -17 -21 2 -57 51 -96 42 -33 88 -38 112 -11 21
23 22 65 2 82 -8 7 -15 18 -15 24 0 6 9 0 18 -12 23 -30 66 -27 70 4 2 14 -12
34 -42 62 -51 47 -91 55 -119 24z"/>
<path d="M1870 1165 c-7 -8 -18 -15 -25 -15 -18 0 -48 -37 -42 -53 3 -8 -5
-31 -19 -50 -37 -55 -30 -98 20 -131 24 -15 27 -15 46 4 15 15 18 25 11 38
-11 21 20 65 41 57 8 -3 23 4 33 15 15 17 17 25 8 40 -10 14 -9 21 2 30 22 18
18 36 -11 59 -32 25 -47 26 -64 6z"/>
<path d="M4497 1024 c-26 -14 -28 -19 -22 -50 5 -28 2 -36 -12 -41 -53 -19
-65 -56 -38 -121 34 -80 85 -103 129 -59 13 13 28 21 34 19 14 -4 72 26 72 38
0 22 -111 230 -123 230 -6 -1 -25 -8 -40 -16z m33 -174 c11 -22 16 -40 10 -40
-5 0 -10 2 -10 4 0 2 -7 20 -15 40 -20 48 -10 46 15 -4z"/>
<path d="M1957 982 c-63 -65 -56 -124 20 -172 58 -37 90 -39 99 -6 8 32 0 43
-36 51 -17 4 -30 11 -30 16 0 6 8 6 19 -1 35 -18 78 -12 99 15 27 34 18 60
-31 96 -54 39 -103 39 -140 1z m85 -64 c-7 -7 -12 -8 -12 -2 0 14 12 26 19 19
2 -3 -1 -11 -7 -17z"/>
<path d="M2306 900 c-10 -25 -14 -28 -27 -16 -32 31 -58 29 -93 -6 -45 -45
-64 -110 -41 -144 16 -25 56 -41 74 -29 6 3 11 0 11 -8 0 -17 53 -42 73 -34 7
3 35 56 61 118 l48 113 -22 18 c-35 28 -69 23 -84 -12z m-52 -121 c-10 -23
-19 -38 -21 -33 -4 13 26 88 33 81 3 -2 -3 -24 -12 -48z"/>
<path d="M4702 908 c-16 -16 -15 -33 4 -49 9 -7 20 -23 25 -36 11 -30 37 -29
51 2 16 36 -12 95 -45 95 -13 0 -28 -5 -35 -12z"/>
<path d="M4238 840 c-53 -28 -66 -74 -39 -135 26 -58 56 -73 117 -57 53 14 94
39 94 57 0 6 -9 20 -20 30 -20 18 -21 18 -50 -3 -31 -23 -40 -27 -40 -14 0 4
14 15 30 24 70 40 58 118 -18 118 -20 -1 -53 -10 -74 -20z m52 -65 c0 -8 -2
-15 -4 -15 -2 0 -6 7 -10 15 -3 8 -1 15 4 15 6 0 10 -7 10 -15z"/>
<path d="M2663 788 c-11 -15 -54 -218 -48 -228 8 -12 118 -32 160 -28 32 2 44
9 62 36 24 37 39 108 29 147 -7 29 -44 50 -112 65 -27 6 -56 13 -65 16 -9 2
-21 -1 -26 -8z m97 -137 c-11 -47 -25 -69 -35 -59 -3 2 -1 20 4 39 5 19 12 47
16 63 4 20 9 26 17 18 7 -7 7 -25 -2 -61z"/>
<path d="M4084 790 c-12 -5 -25 -14 -29 -20 -4 -6 -15 -8 -25 -5 -11 3 -33 -1
-50 -10 -25 -13 -31 -21 -26 -38 3 -12 13 -52 23 -89 19 -74 29 -80 88 -58 22
8 26 15 21 33 -3 12 -9 39 -12 59 -6 36 -6 37 27 40 30 3 34 7 37 36 2 18 -2
40 -9 48 -13 16 -16 16 -45 4z"/>
<path d="M3190 741 c-25 -7 -25 -9 -31 -131 -4 -86 -3 -127 5 -133 6 -4 27 -6
46 -5 43 4 48 18 49 159 1 123 -2 129 -69 110z"/>
<path d="M3327 743 c-13 -3 -17 -12 -15 -31 3 -24 7 -27 42 -27 41 0 70 25 51
44 -13 13 -55 20 -78 14z"/>
<path d="M3780 719 c-37 -15 -60 -49 -60 -92 0 -99 72 -137 183 -95 31 12 35
38 10 61 -16 13 -21 14 -43 2 -30 -17 -40 -18 -40 -5 0 6 8 10 19 10 29 0 71
39 71 66 0 54 -70 80 -140 53z m50 -65 c0 -8 -4 -12 -10 -9 -5 3 -10 10 -10
16 0 5 5 9 10 9 6 0 10 -7 10 -16z"/>
<path d="M2965 691 c-55 -23 -82 -108 -51 -157 30 -45 120 -69 166 -44 16 9
17 15 8 40 -9 28 -13 30 -51 25 l-42 -5 38 10 c64 17 77 27 77 65 0 25 -6 39
-22 49 -29 18 -97 28 -123 17z m51 -77 c-4 -9 -9 -15 -11 -12 -3 3 -3 13 1 22
4 9 9 15 11 12 3 -3 3 -13 -1 -22z"/>
<path d="M3598 689 c-23 -9 -28 -17 -29 -47 l-1 -37 -8 33 c-4 19 -12 38 -17
43 -12 12 -83 -9 -89 -26 -5 -13 69 -160 87 -170 5 -3 24 -3 43 1 34 6 36 8
65 102 16 53 29 97 28 98 -9 10 -57 11 -79 3z"/>
<path d="M2375 671 c-3 -10 -3 -26 1 -35 3 -9 1 -16 -5 -16 -14 0 -15 -37 -1
-45 29 -18 80 35 80 83 0 34 -64 45 -75 13z"/>
<path d="M3323 664 c-9 -4 -13 -34 -13 -100 l0 -94 38 0 c60 0 63 6 60 106
l-3 89 -35 2 c-19 1 -41 0 -47 -3z"/>
</g>
</svg>
