<svg width="36" height="36" viewBox="0 0 36 36" fill="none" xmlns="http://www.w3.org/2000/svg">
<path d="M29.25 7.3125H25.6528L23.9062 4.68844C23.7519 4.45708 23.5427 4.26745 23.2974 4.13644C23.052 4.00543 22.7781 3.93709 22.5 3.9375H13.5C13.2219 3.93709 12.9479 4.00543 12.7026 4.13644C12.4573 4.26745 12.2481 4.45708 12.0938 4.68844L10.3458 7.3125H6.75C5.70571 7.3125 4.70419 7.72734 3.96577 8.46577C3.22734 9.20419 2.8125 10.2057 2.8125 11.25V27C2.8125 28.0443 3.22734 29.0458 3.96577 29.7842C4.70419 30.5227 5.70571 30.9375 6.75 30.9375H29.25C29.7671 30.9375 30.2791 30.8357 30.7568 30.6378C31.2345 30.4399 31.6686 30.1499 32.0342 29.7842C32.3999 29.4186 32.6899 28.9845 32.8878 28.5068C33.0857 28.0291 33.1875 27.5171 33.1875 27V11.25C33.1875 10.7329 33.0857 10.2209 32.8878 9.74319C32.6899 9.26547 32.3999 8.8314 32.0342 8.46577C31.6686 8.10014 31.2345 7.8101 30.7568 7.61223C30.2791 7.41435 29.7671 7.3125 29.25 7.3125ZM29.8125 27C29.8125 27.1492 29.7532 27.2923 29.6477 27.3978C29.5423 27.5032 29.3992 27.5625 29.25 27.5625H6.75C6.60082 27.5625 6.45774 27.5032 6.35225 27.3978C6.24676 27.2923 6.1875 27.1492 6.1875 27V11.25C6.1875 11.1008 6.24676 10.9577 6.35225 10.8523C6.45774 10.7468 6.60082 10.6875 6.75 10.6875H11.25C11.5281 10.6879 11.8021 10.6196 12.0474 10.4886C12.2927 10.3575 12.5019 10.1679 12.6562 9.93656L14.4028 7.3125H21.5958L23.3438 9.93656C23.4981 10.1679 23.7073 10.3575 23.9526 10.4886C24.198 10.6196 24.4719 10.6879 24.75 10.6875H29.25C29.3992 10.6875 29.5423 10.7468 29.6477 10.8523C29.7532 10.9577 29.8125 11.1008 29.8125 11.25V27ZM18 11.8125C16.665 11.8125 15.3599 12.2084 14.2499 12.9501C13.1399 13.6918 12.2747 14.746 11.7638 15.9794C11.2529 17.2128 11.1192 18.57 11.3797 19.8794C11.6402 21.1887 12.283 22.3915 13.227 23.3355C14.171 24.2795 15.3738 24.9224 16.6831 25.1828C17.9925 25.4433 19.3497 25.3096 20.5831 24.7987C21.8165 24.2878 22.8707 23.4226 23.6124 22.3126C24.3541 21.2026 24.75 19.8975 24.75 18.5625C24.7481 16.7729 24.0364 15.0571 22.7709 13.7916C21.5054 12.5261 19.7896 11.8144 18 11.8125ZM18 21.9375C17.3325 21.9375 16.68 21.7396 16.125 21.3687C15.5699 20.9979 15.1374 20.4708 14.8819 19.8541C14.6265 19.2374 14.5596 18.5588 14.6898 17.9041C14.8201 17.2494 15.1415 16.648 15.6135 16.176C16.0855 15.704 16.6869 15.3826 17.3416 15.2524C17.9963 15.1221 18.6749 15.189 19.2916 15.4444C19.9083 15.6999 20.4354 16.1324 20.8062 16.6875C21.1771 17.2425 21.375 17.895 21.375 18.5625C21.375 19.4576 21.0194 20.3161 20.3865 20.949C19.7536 21.5819 18.8951 21.9375 18 21.9375Z" fill="currentColor"/>
</svg>
