<svg width="25" height="24" viewBox="0 0 25 24" fill="none" xmlns="http://www.w3.org/2000/svg">
<path d="M5.81338 2.2423C6.01483 1.98954 6.12451 1.65524 6.11929 1.30981C6.11408 0.964388 5.99439 0.634814 5.78543 0.390524C5.57648 0.146234 5.29457 0.00630234 4.99911 0.000207729C4.70365 -0.00588688 4.41769 0.122332 4.2015 0.357852L1.16021 3.91341C0.946638 4.16341 0.826675 4.5023 0.826675 4.85563C0.826675 5.20896 0.946638 5.54785 1.16021 5.79785L4.2015 9.35341C4.30591 9.48441 4.43182 9.58948 4.57172 9.66235C4.71161 9.73523 4.86263 9.77441 5.01577 9.77757C5.1689 9.78073 5.32101 9.7478 5.46302 9.68074C5.60503 9.61368 5.73403 9.51386 5.84233 9.38725C5.95063 9.26064 6.036 9.10983 6.09336 8.9438C6.15072 8.77778 6.17889 8.59995 6.17619 8.42092C6.17349 8.2419 6.13997 8.06534 6.07764 7.90178C6.0153 7.73823 5.92543 7.59103 5.81338 7.46896L4.71852 6.18896H20.2139C20.5163 6.18896 20.8064 6.04849 21.0203 5.79844C21.2342 5.54839 21.3543 5.20925 21.3543 4.85563C21.3543 4.50201 21.2342 4.16287 21.0203 3.91282C20.8064 3.66277 20.5163 3.5223 20.2139 3.5223H4.71852L5.81338 2.2423ZM19.4079 14.5801C19.1943 14.8301 19.0744 15.169 19.0744 15.5223C19.0744 15.8756 19.1943 16.2145 19.4079 16.4645L20.5028 17.7445H5.00744C4.70496 17.7445 4.41488 17.885 4.201 18.135C3.98711 18.3851 3.86696 18.7242 3.86696 19.0779C3.86696 19.4315 3.98711 19.7706 4.201 20.0207C4.41488 20.2707 4.70496 20.4112 5.00744 20.4112H20.5028L19.4079 21.6912C19.2959 21.8133 19.206 21.9605 19.1437 22.124C19.0813 22.2876 19.0478 22.4641 19.0451 22.6431C19.0424 22.8222 19.0706 23 19.1279 23.166C19.1853 23.332 19.2707 23.4829 19.379 23.6095C19.4873 23.7361 19.6163 23.8359 19.7583 23.903C19.9003 23.97 20.0524 24.003 20.2055 23.9998C20.3587 23.9966 20.5097 23.9574 20.6496 23.8846C20.7895 23.8117 20.9154 23.7066 21.0198 23.5756L24.0611 20.0201C24.2747 19.7701 24.3946 19.4312 24.3946 19.0779C24.3946 18.7245 24.2747 18.3856 24.0611 18.1356L21.0198 14.5801C20.806 14.3304 20.5161 14.1901 20.2139 14.1901C19.9116 14.1901 19.6218 14.3304 19.4079 14.5801Z" fill="black"/>
</svg>
