<svg width="33" height="32" viewBox="0 0 33 32" fill="none" xmlns="http://www.w3.org/2000/svg">
<path d="M3.24943 4.00033V2.66699C2.8958 2.66699 2.55666 2.80747 2.30662 3.05752C2.05657 3.30756 1.91609 3.6467 1.91609 4.00033H3.24943ZM17.9161 4.00033H19.2494C19.2494 3.6467 19.1089 3.30756 18.8589 3.05752C18.6089 2.80747 18.2697 2.66699 17.9161 2.66699V4.00033ZM17.9161 12.0003V10.667C17.5625 10.667 17.2233 10.8075 16.9733 11.0575C16.7232 11.3076 16.5828 11.6467 16.5828 12.0003H17.9161ZM3.24943 5.33366H17.9161V2.66699H3.24943V5.33366ZM16.5828 4.00033V25.3337H19.2494V4.00033H16.5828ZM4.58276 22.667V4.00033H1.91609V22.667H4.58276ZM17.9161 13.3337H24.5828V10.667H17.9161V13.3337ZM28.5828 17.3337V22.667H31.2494V17.3337H28.5828ZM19.2494 25.3337V12.0003H16.5828V25.3337H19.2494ZM25.5254 26.2763C25.2754 26.5263 24.9363 26.6667 24.5828 26.6667C24.2292 26.6667 23.8901 26.5263 23.6401 26.2763L21.7548 28.1617C22.5049 28.9115 23.5221 29.3328 24.5828 29.3328C25.6434 29.3328 26.6606 28.9115 27.4108 28.1617L25.5254 26.2763ZM23.6401 24.391C23.8901 24.141 24.2292 24.0006 24.5828 24.0006C24.9363 24.0006 25.2754 24.141 25.5254 24.391L27.4108 22.5057C26.6606 21.7558 25.6434 21.3345 24.5828 21.3345C23.5221 21.3345 22.5049 21.7558 21.7548 22.5057L23.6401 24.391ZM9.52542 26.2763C9.27539 26.5263 8.93631 26.6667 8.58276 26.6667C8.22921 26.6667 7.89013 26.5263 7.64009 26.2763L5.75476 28.1617C6.50487 28.9115 7.5221 29.3328 8.58276 29.3328C9.64342 29.3328 10.6606 28.9115 11.4108 28.1617L9.52542 26.2763ZM7.64009 24.391C7.89013 24.141 8.22921 24.0006 8.58276 24.0006C8.93631 24.0006 9.27539 24.141 9.52542 24.391L11.4108 22.5057C10.6606 21.7558 9.64342 21.3345 8.58276 21.3345C7.5221 21.3345 6.50487 21.7558 5.75476 22.5057L7.64009 24.391ZM25.5254 24.391C25.7868 24.651 25.9161 24.991 25.9161 25.3337H28.5828C28.5828 24.3123 28.1921 23.2857 27.4108 22.5057L25.5254 24.391ZM25.9161 25.3337C25.916 25.6873 25.7755 26.0263 25.5254 26.2763L27.4108 28.1617C28.161 27.4117 28.5825 26.3944 28.5828 25.3337H25.9161ZM21.9161 24.0003H17.9161V26.667H21.9161V24.0003ZM23.6401 26.2763C23.39 26.0263 23.2495 25.6873 23.2494 25.3337H20.5828C20.5828 26.355 20.9734 27.3817 21.7548 28.1617L23.6401 26.2763ZM23.2494 25.3337C23.2495 24.9801 23.39 24.641 23.6401 24.391L21.7548 22.5057C21.0046 23.2556 20.583 24.2729 20.5828 25.3337H23.2494ZM7.64009 26.2763C7.39003 26.0263 7.2495 25.6873 7.24943 25.3337H4.58276C4.58276 26.355 4.97343 27.3817 5.75476 28.1617L7.64009 26.2763ZM7.24943 25.3337C7.2495 24.9801 7.39003 24.641 7.64009 24.391L5.75476 22.5057C5.00456 23.2556 4.58299 24.2729 4.58276 25.3337H7.24943ZM17.9161 24.0003H11.2494V26.667H17.9161V24.0003ZM9.52542 24.391C9.78676 24.651 9.91609 24.991 9.91609 25.3337H12.5828C12.5828 24.3123 12.1921 23.2857 11.4108 22.5057L9.52542 24.391ZM9.91609 25.3337C9.91602 25.6873 9.77549 26.0263 9.52542 26.2763L11.4108 28.1617C12.161 27.4117 12.5825 26.3944 12.5828 25.3337H9.91609ZM28.5828 22.667C28.5828 23.0206 28.4423 23.3598 28.1922 23.6098C27.9422 23.8598 27.603 24.0003 27.2494 24.0003V26.667C28.3103 26.667 29.3277 26.2456 30.0779 25.4954C30.828 24.7453 31.2494 23.7279 31.2494 22.667H28.5828ZM24.5828 13.3337C25.6436 13.3337 26.661 13.7551 27.4112 14.5052C28.1613 15.2554 28.5828 16.2728 28.5828 17.3337H31.2494C31.2494 16.4582 31.077 15.5913 30.742 14.7824C30.4069 13.9736 29.9159 13.2387 29.2968 12.6196C28.6777 12.0006 27.9428 11.5095 27.134 11.1745C26.3251 10.8394 25.4582 10.667 24.5828 10.667V13.3337ZM1.91609 22.667C1.91609 23.7279 2.33752 24.7453 3.08766 25.4954C3.83781 26.2456 4.85523 26.667 5.91609 26.667V24.0003C5.56247 24.0003 5.22333 23.8598 4.97328 23.6098C4.72323 23.3598 4.58276 23.0206 4.58276 22.667H1.91609Z" fill="black"/>
<path d="M3.24942 10.667H7.24942M3.24942 16.0003H9.91609" stroke="black" stroke-width="2" stroke-linecap="round" stroke-linejoin="round"/>
</svg>
