<svg width="33" height="32" viewBox="0 0 33 32" fill="none" xmlns="http://www.w3.org/2000/svg">
<path d="M16.7236 24.7333L16.5926 24.8667L16.4486 24.7333C10.2293 18.9867 6.11801 15.1867 6.11801 11.3333C6.11801 8.66667 8.082 6.66667 10.7007 6.66667C12.717 6.66667 14.681 8 15.375 9.81333H17.8103C18.5043 8 20.4683 6.66667 22.4846 6.66667C25.1033 6.66667 27.0673 8.66667 27.0673 11.3333C27.0673 15.1867 22.956 18.9867 16.7236 24.7333ZM22.4846 4C20.2064 4 18.0198 5.08 16.5926 6.77333C15.1655 5.08 12.9789 4 10.7007 4C6.66792 4 3.49934 7.21333 3.49934 11.3333C3.49934 16.36 7.95107 20.48 14.6941 26.7067L16.5926 28.4667L18.4912 26.7067C25.2342 20.48 29.686 16.36 29.686 11.3333C29.686 7.21333 26.5174 4 22.4846 4Z" fill="currentColor"/>
</svg>
