<svg width="24" height="24" viewBox="0 0 24 24" fill="none" xmlns="http://www.w3.org/2000/svg">
<path d="M10 2C8.74856 2.00067 7.51474 2.29492 6.3977 2.85909C5.28065 3.42326 4.31154 4.24163 3.56825 5.24841C2.82496 6.25519 2.32823 7.42231 2.11799 8.65595C1.90774 9.8896 1.98983 11.1554 2.35768 12.3515C2.72552 13.5477 3.36886 14.6408 4.23597 15.5432C5.10308 16.4455 6.16979 17.1318 7.35035 17.547C8.53092 17.9621 9.79241 18.0945 11.0334 17.9335C12.2745 17.7725 13.4604 17.3226 14.496 16.62L19.44 21.56C19.5773 21.7074 19.7429 21.8256 19.9269 21.9076C20.1109 21.9895 20.3095 22.0336 20.511 22.0372C20.7124 22.0407 20.9124 22.0037 21.0992 21.9282C21.286 21.8528 21.4556 21.7405 21.5981 21.5981C21.7405 21.4556 21.8528 21.286 21.9282 21.0992C22.0037 20.9124 22.0407 20.7124 22.0372 20.511C22.0336 20.3095 21.9895 20.1109 21.9076 19.9269C21.8256 19.7429 21.7074 19.5773 21.56 19.44L16.62 14.496C17.4373 13.2932 17.9112 11.8903 17.9909 10.4383C18.0706 8.98624 17.7529 7.53995 17.0722 6.25492C16.3914 4.96989 15.3732 3.89473 14.1271 3.14503C12.8811 2.39534 11.4542 1.99947 10 2ZM5 10C5 8.67392 5.52678 7.40215 6.46446 6.46447C7.40215 5.52678 8.67391 5 10 5C11.3261 5 12.5978 5.52678 13.5355 6.46447C14.4732 7.40215 15 8.67392 15 10C15 11.3261 14.4732 12.5979 13.5355 13.5355C12.5978 14.4732 11.3261 15 10 15C8.67391 15 7.40215 14.4732 6.46446 13.5355C5.52678 12.5979 5 11.3261 5 10Z" fill="currentColor"/>
</svg>
