<svg width="24" height="24" viewBox="0 0 24 24" fill="none" xmlns="http://www.w3.org/2000/svg">
<path d="M3.33337 5.06671C3.33337 4.11337 4.11337 3.33337 5.06671 3.33337H18.9334C19.3931 3.33337 19.834 3.51599 20.159 3.84106C20.4841 4.16612 20.6667 4.607 20.6667 5.06671V6.80004H3.33337V5.06671ZM4.20004 7.66671H19.8V18.9334C19.8 19.3931 19.6174 19.834 19.2924 20.159C18.9673 20.4841 18.5264 20.6667 18.0667 20.6667H5.93337C5.47367 20.6667 5.03279 20.4841 4.70772 20.159C4.38266 19.834 4.20004 19.3931 4.20004 18.9334V7.66671ZM9.40004 9.40004V11.1334H14.6V9.40004H9.40004Z" fill="currentColor"/>
</svg>
