<svg width="36" height="36" viewBox="0 0 36 36" fill="currentColor" xmlns="http://www.w3.org/2000/svg">
<path d="M24 16.5C26.49 16.5 28.485 14.49 28.485 12C28.485 9.51 26.49 7.5 24 7.5C21.51 7.5 19.5 9.51 19.5 12C19.5 14.49 21.51 16.5 24 16.5ZM12 16.5C14.49 16.5 16.485 14.49 16.485 12C16.485 9.51 14.49 7.5 12 7.5C9.51 7.5 7.5 9.51 7.5 12C7.5 14.49 9.51 16.5 12 16.5ZM12 19.5C8.505 19.5 1.5 21.255 1.5 24.75V27C1.5 27.825 2.175 28.5 3 28.5H21C21.825 28.5 22.5 27.825 22.5 27V24.75C22.5 21.255 15.495 19.5 12 19.5ZM24 19.5C23.565 19.5 23.07 19.53 22.545 19.575C22.575 19.59 22.59 19.62 22.605 19.635C24.315 20.88 25.5 22.545 25.5 24.75V27C25.5 27.525 25.395 28.035 25.23 28.5H33C33.825 28.5 34.5 27.825 34.5 27V24.75C34.5 21.255 27.495 19.5 24 19.5Z" fill="currentColor"/>
</svg>
