<svg width="24" height="24" viewBox="0 0 24 24" fill="none" xmlns="http://www.w3.org/2000/svg">
<path fill-rule="evenodd" clip-rule="evenodd" d="M2.39998 5.99998V15.6C2.39998 16.2365 2.65283 16.8469 3.10292 17.297C3.55301 17.7471 4.16346 18 4.79998 18H10.8L16.8 22.8V18H19.2C19.8365 18 20.4469 17.7471 20.897 17.297C21.3471 16.8469 21.6 16.2365 21.6 15.6V5.99998C21.6 5.36346 21.3471 4.75301 20.897 4.30292C20.4469 3.85283 19.8365 3.59998 19.2 3.59998H4.79998C4.16346 3.59998 3.55301 3.85283 3.10292 4.30292C2.65283 4.75301 2.39998 5.36346 2.39998 5.99998ZM15.6 9.59998H18V12H15.6V9.59998ZM13.2 9.59998H10.8V12H13.2V9.59998ZM5.99998 9.59998H8.39998V12H5.99998V9.59998Z" fill="currentColor"/>
</svg>
