<svg width="32" height="32" viewBox="0 0 32 32" fill="none" xmlns="http://www.w3.org/2000/svg">
<path fill-rule="evenodd" clip-rule="evenodd" d="M26.8773 5.66667H5.92799C5.58074 5.66667 5.2477 5.80714 5.00215 6.05719C4.75661 6.30724 4.61866 6.64638 4.61866 7V25.6667C4.61866 26.0203 4.75661 26.3594 5.00215 26.6095C5.2477 26.8595 5.58074 27 5.92799 27H26.8773C27.2245 27 27.5576 26.8595 27.8031 26.6095C28.0487 26.3594 28.1866 26.0203 28.1866 25.6667V7C28.1866 6.64638 28.0487 6.30724 27.8031 6.05719C27.5576 5.80714 27.2245 5.66667 26.8773 5.66667ZM5.92799 3C4.88622 3 3.88712 3.42143 3.15048 4.17157C2.41384 4.92172 2 5.93913 2 7V25.6667C2 26.7275 2.41384 27.7449 3.15048 28.4951C3.88712 29.2452 4.88622 29.6667 5.92799 29.6667H26.8773C27.919 29.6667 28.9181 29.2452 29.6548 28.4951C30.3914 27.7449 30.8053 26.7275 30.8053 25.6667V7C30.8053 5.93913 30.3914 4.92172 29.6548 4.17157C28.9181 3.42143 27.919 3 26.8773 3H5.92799ZM8.54665 9.66667H11.1653V12.3333H8.54665V9.66667ZM15.0933 9.66667C14.746 9.66667 14.413 9.80714 14.1675 10.0572C13.9219 10.3072 13.784 10.6464 13.784 11C13.784 11.3536 13.9219 11.6928 14.1675 11.9428C14.413 12.1929 14.746 12.3333 15.0933 12.3333H22.9493C23.2965 12.3333 23.6296 12.1929 23.8751 11.9428C24.1207 11.6928 24.2586 11.3536 24.2586 11C24.2586 10.6464 24.1207 10.3072 23.8751 10.0572C23.6296 9.80714 23.2965 9.66667 22.9493 9.66667H15.0933ZM11.1653 15H8.54665V17.6667H11.1653V15ZM13.784 16.3333C13.784 15.9797 13.9219 15.6406 14.1675 15.3905C14.413 15.1405 14.746 15 15.0933 15H22.9493C23.2965 15 23.6296 15.1405 23.8751 15.3905C24.1207 15.6406 24.2586 15.9797 24.2586 16.3333C24.2586 16.687 24.1207 17.0261 23.8751 17.2761C23.6296 17.5262 23.2965 17.6667 22.9493 17.6667H15.0933C14.746 17.6667 14.413 17.5262 14.1675 17.2761C13.9219 17.0261 13.784 16.687 13.784 16.3333ZM11.1653 20.3333H8.54665V23H11.1653V20.3333ZM13.784 21.6667C13.784 21.313 13.9219 20.9739 14.1675 20.7239C14.413 20.4738 14.746 20.3333 15.0933 20.3333H22.9493C23.2965 20.3333 23.6296 20.4738 23.8751 20.7239C24.1207 20.9739 24.2586 21.313 24.2586 21.6667C24.2586 22.0203 24.1207 22.3594 23.8751 22.6095C23.6296 22.8595 23.2965 23 22.9493 23H15.0933C14.746 23 14.413 22.8595 14.1675 22.6095C13.9219 22.3594 13.784 22.0203 13.784 21.6667Z" fill="black"/>
</svg>
