<svg width="24" height="24" viewBox="0 0 24 24" fill="none" xmlns="http://www.w3.org/2000/svg">
<path d="M2 3V2C1.73478 2 1.48043 2.10536 1.29289 2.29289C1.10536 2.48043 1 2.73478 1 3H2ZM13 3H14C14 2.73478 13.8946 2.48043 13.7071 2.29289C13.5196 2.10536 13.2652 2 13 2V3ZM13 9V8C12.7348 8 12.4804 8.10536 12.2929 8.29289C12.1054 8.48043 12 8.73478 12 9H13ZM2 4H13V2H2V4ZM12 3V19H14V3H12ZM3 17V3H1V17H3ZM13 10H18V8H13V10ZM21 13V17H23V13H21ZM14 19V9H12V19H14ZM18.707 19.707C18.5195 19.8945 18.2652 19.9998 18 19.9998C17.7348 19.9998 17.4805 19.8945 17.293 19.707L15.879 21.121C16.4416 21.6834 17.2045 21.9994 18 21.9994C18.7955 21.9994 19.5584 21.6834 20.121 21.121L18.707 19.707ZM17.293 18.293C17.4805 18.1055 17.7348 18.0002 18 18.0002C18.2652 18.0002 18.5195 18.1055 18.707 18.293L20.121 16.879C19.5584 16.3166 18.7955 16.0006 18 16.0006C17.2045 16.0006 16.4416 16.3166 15.879 16.879L17.293 18.293ZM6.707 19.707C6.51947 19.8945 6.26516 19.9998 6 19.9998C5.73484 19.9998 5.48053 19.8945 5.293 19.707L3.879 21.121C4.44158 21.6834 5.20451 21.9994 6 21.9994C6.79549 21.9994 7.55842 21.6834 8.121 21.121L6.707 19.707ZM5.293 18.293C5.48053 18.1055 5.73484 18.0002 6 18.0002C6.26516 18.0002 6.51947 18.1055 6.707 18.293L8.121 16.879C7.55842 16.3166 6.79549 16.0006 6 16.0006C5.20451 16.0006 4.44158 16.3166 3.879 16.879L5.293 18.293ZM18.707 18.293C18.903 18.488 19 18.743 19 19H21C21 18.234 20.707 17.464 20.121 16.879L18.707 18.293ZM19 19C18.9999 19.2652 18.8946 19.5195 18.707 19.707L20.121 21.121C20.6836 20.5585 20.9998 19.7956 21 19H19ZM16 18H13V20H16V18ZM17.293 19.707C17.1054 19.5195 17.0001 19.2652 17 19H15C15 19.766 15.293 20.536 15.879 21.121L17.293 19.707ZM17 19C17.0001 18.7348 17.1054 18.4805 17.293 18.293L15.879 16.879C15.3164 17.4415 15.0002 18.2044 15 19H17ZM5.293 19.707C5.10545 19.5195 5.00006 19.2652 5 19H3C3 19.766 3.293 20.536 3.879 21.121L5.293 19.707ZM5 19C5.00006 18.7348 5.10545 18.4805 5.293 18.293L3.879 16.879C3.31635 17.4415 3.00017 18.2044 3 19H5ZM13 18H8V20H13V18ZM6.707 18.293C6.903 18.488 7 18.743 7 19H9C9 18.234 8.707 17.464 8.121 16.879L6.707 18.293ZM7 19C6.99994 19.2652 6.89455 19.5195 6.707 19.707L8.121 21.121C8.68365 20.5585 8.99983 19.7956 9 19H7ZM21 17C21 17.2652 20.8946 17.5196 20.7071 17.7071C20.5196 17.8946 20.2652 18 20 18V20C20.7956 20 21.5587 19.6839 22.1213 19.1213C22.6839 18.5587 23 17.7956 23 17H21ZM18 10C18.7956 10 19.5587 10.3161 20.1213 10.8787C20.6839 11.4413 21 12.2044 21 13H23C23 12.3434 22.8707 11.6932 22.6194 11.0866C22.3681 10.48 21.9998 9.92876 21.5355 9.46447C21.0712 9.00017 20.52 8.63188 19.9134 8.3806C19.3068 8.12933 18.6566 8 18 8V10ZM1 17C1 17.7956 1.31607 18.5587 1.87868 19.1213C2.44129 19.6839 3.20435 20 4 20V18C3.73478 18 3.48043 17.8946 3.29289 17.7071C3.10536 17.5196 3 17.2652 3 17H1Z" fill="currentColor"/>
<path d="M2 8H5M2 12H7" stroke="currentColor" stroke-width="2" stroke-linecap="round" stroke-linejoin="round"/>
</svg>
