<svg width="24" height="24" viewBox="0 0 24 24" fill="none" xmlns="http://www.w3.org/2000/svg">
<path d="M4.44004 4.44004C4.72129 4.15914 5.10254 4.00136 5.50004 4.00136C5.89754 4.00136 6.27879 4.15914 6.56004 4.44004L12 9.87804L17.44 4.44004C17.5792 4.30084 17.7445 4.19042 17.9264 4.11509C18.1083 4.03975 18.3032 4.00098 18.5 4.00098C18.6969 4.00098 18.8918 4.03975 19.0737 4.11509C19.2556 4.19042 19.4208 4.30084 19.56 4.44004C19.6992 4.57924 19.8097 4.7445 19.885 4.92637C19.9603 5.10825 19.9991 5.30318 19.9991 5.50004C19.9991 5.6969 19.9603 5.89184 19.885 6.07371C19.8097 6.25559 19.6992 6.42084 19.56 6.56004L14.122 12L19.56 17.44C19.8412 17.7212 19.9991 18.1025 19.9991 18.5C19.9991 18.8976 19.8412 19.2789 19.56 19.56C19.2789 19.8412 18.8976 19.9991 18.5 19.9991C18.1025 19.9991 17.7212 19.8412 17.44 19.56L12 14.122L6.56004 19.56C6.27891 19.8412 5.89762 19.9991 5.50004 19.9991C5.10247 19.9991 4.72117 19.8412 4.44004 19.56C4.15891 19.2789 4.00098 18.8976 4.00098 18.5C4.00098 18.1025 4.15891 17.7212 4.44004 17.44L9.87804 12L4.44004 6.56004C4.15914 6.27879 4.00136 5.89754 4.00136 5.50004C4.00136 5.10254 4.15914 4.72129 4.44004 4.44004Z" fill="currentColor"/>
</svg>
